<svg xmlns="http://www.w3.org/2000/svg" viewBox="0 0 200 96" preserveAspectRatio="none">
  <!-- lado direito: imagem cheia -->
  <rect x="100" y="0" width="110" height="96" fill="#fff"/>
  <!-- transição: hexágonos cortando a borda esquerda (mais fortes à direita) -->
  <g fill="#fff" opacity="0.16">
    <polygon points="12,8 19,-4.12 33,-4.12 40,8 33,20.12 19,20.12"/>
    <polygon points="12,32 19,19.88 33,19.88 40,32 33,44.12 19,44.12"/>
    <polygon points="12,56 19,43.88 33,43.88 40,56 33,68.12 19,68.12"/>
    <polygon points="12,80 19,67.88 33,67.88 40,80 33,92.12 19,92.12"/>
  </g>
  <g fill="#fff" opacity="0.36">
    <polygon points="33,20 40,7.88 54,7.88 61,20 54,32.12 40,32.12"/>
    <polygon points="33,44 40,31.88 54,31.88 61,44 54,56.12 40,56.12"/>
    <polygon points="33,68 40,55.88 54,55.88 61,68 54,80.12 40,80.12"/>
    <polygon points="33,92 40,79.88 54,79.88 61,92 54,104.12 40,104.12"/>
  </g>
  <g fill="#fff" opacity="0.6">
    <polygon points="54,8 61,-4.12 75,-4.12 82,8 75,20.12 61,20.12"/>
    <polygon points="54,32 61,19.88 75,19.88 82,32 75,44.12 61,44.12"/>
    <polygon points="54,56 61,43.88 75,43.88 82,56 75,68.12 61,68.12"/>
    <polygon points="54,80 61,67.88 75,67.88 82,80 75,92.12 61,92.12"/>
  </g>
  <g fill="#fff" opacity="0.85">
    <polygon points="75,20 82,7.88 96,7.88 103,20 96,32.12 82,32.12"/>
    <polygon points="75,44 82,31.88 96,31.88 103,44 96,56.12 82,56.12"/>
    <polygon points="75,68 82,55.88 96,55.88 103,68 96,80.12 82,80.12"/>
    <polygon points="75,92 82,79.88 96,79.88 103,92 96,104.12 82,104.12"/>
  </g>
</svg>
