<?xml version="1.0" encoding="UTF-8"?>
<svg xmlns="http://www.w3.org/2000/svg" viewBox="269.66 81.65 595.20 295.41">
  <path fill="#eb6213" d="M785.56,112.54h0c-49.78-28.27-101.3-24.79-153.11,10.35-17.11,11.6-38.11,23.55-64.13,24.2-29.14.78-52.3-14.48-74.69-29.19-37.88-24.89-85.26-30.31-126.74-14.5-39.65,15.12-68.69,47-79.69,87.48-11.66,42.9-4.79,84.83,19.34,118.06,23.85,32.85,63.02,54.3,102.21,56,1.93.08,3.86.12,5.73.12,38.72,0,69.36-16.76,96.7-34.87,20.26-13.42,42.09-19.03,66.75-17.17,20.05,1.52,37.25,11.68,54.57,22.87,23.62,15.25,51.6,31.27,85.14,28.54,17.19.59,32.03-1.86,46.69-7.64,52.41-20.65,82.76-60.1,87.77-114.08,5.33-57.4-17.68-102.41-66.54-130.16ZM776.27,296.48c-31.15,26.63-71.04,29.47-106.71,7.59-3.09-1.89-6.16-3.82-9.23-5.75l-.23-.14c-19.38-12.16-39.42-24.74-63.88-29.8-9.68-2-19.41-3.02-28.9-3.02-28.8,0-56.48,8.95-84.61,27.37-19.28,12.63-39.22,25.68-63.54,25.88-.19,0-.37,0-.56,0-24.97,0-47.83-9.11-64.44-25.68-16.68-16.65-25.85-39.55-25.82-64.46.11-34.82,15.08-59.92,45.76-76.72,29.34-16.07,57.68-15.67,86.64,1.24,6.89,4.02,13.93,8.3,20.14,12.08,3.39,2.06,6.78,4.12,10.18,6.17,49.65,29.86,100.67,30.03,151.64.48,5.04-2.92,9.96-6.03,14.77-9.07,17.92-11.33,33.4-21.12,53.46-21.6,43.25-1.07,75.57,20.15,90.97,59.78,12.06,31.03.79,73.05-25.64,95.66Z"/>
</svg>
