<?xml version="1.0" encoding="UTF-8"?>
<svg id="Camada_1" data-name="Camada 1" xmlns="http://www.w3.org/2000/svg" viewBox="0 0 1920 442.78">
  <defs>
    <style>
      .cls-1 {
        fill: #1d1d1b;
      }

      .cls-2 {
        fill: #eb6213;
      }
    </style>
  </defs>
  <path class="cls-2" d="M785.56,112.54h0c-49.78-28.27-101.3-24.79-153.11,10.35-17.11,11.6-38.11,23.55-64.13,24.2-29.14.78-52.3-14.48-74.69-29.19-37.88-24.89-85.26-30.31-126.74-14.5-39.65,15.12-68.69,47-79.69,87.48-11.66,42.9-4.79,84.83,19.34,118.06,23.85,32.85,63.02,54.3,102.21,56,1.93.08,3.86.12,5.73.12,38.72,0,69.36-16.76,96.7-34.87,20.26-13.42,42.09-19.03,66.75-17.17,20.05,1.52,37.25,11.68,54.57,22.87,23.62,15.25,51.6,31.27,85.14,28.54,17.19.59,32.03-1.86,46.69-7.64,52.41-20.65,82.76-60.1,87.77-114.08,5.33-57.4-17.68-102.41-66.54-130.16ZM776.27,296.48c-31.15,26.63-71.04,29.47-106.71,7.59-3.09-1.89-6.16-3.82-9.23-5.75l-.23-.14c-19.38-12.16-39.42-24.74-63.88-29.8-9.68-2-19.41-3.02-28.9-3.02-28.8,0-56.48,8.95-84.61,27.37-19.28,12.63-39.22,25.68-63.54,25.88-.19,0-.37,0-.56,0-24.97,0-47.83-9.11-64.44-25.68-16.68-16.65-25.85-39.55-25.82-64.46.11-34.82,15.08-59.92,45.76-76.72,29.34-16.07,57.68-15.67,86.64,1.24,6.89,4.02,13.93,8.3,20.14,12.08,3.39,2.06,6.78,4.12,10.18,6.17,49.65,29.86,100.67,30.03,151.64.48,5.04-2.92,9.96-6.03,14.77-9.07,17.92-11.33,33.4-21.12,53.46-21.6,43.25-1.07,75.57,20.15,90.97,59.78,12.06,31.03.79,73.05-25.64,95.66Z"/>
  <g>
    <g>
      <path class="cls-1" d="M241.06,302.37h-118.27c-3.87,0-7.02-3.16-7.02-7.06V102.52c0-5.46-4.39-9.88-9.83-9.88h-41.96c-5.43,0-9.83,4.42-9.83,9.88v251.91c0,5.46,4.4,9.88,9.83,9.88h177.08c5.43,0,9.83-4.42,9.83-9.88v-42.18c0-5.46-4.4-9.88-9.83-9.88Z"/>
      <path class="cls-1" d="M990.28,92.64h-101.36c-5.43,0-9.83,4.42-9.83,9.88v251.91c0,5.46,4.4,9.88,9.83,9.88h41.96c5.44,0,9.83-4.42,9.83-9.88v-58.43c0-3.9,3.15-7.06,7.02-7.06h42.56c94.1,0,103.43-59.04,103.43-98.3s-9.34-98-103.43-98ZM996.12,227.01h-48.39c-3.87,0-7.02-3.16-7.02-7.06v-58.32c0-3.9,3.15-7.06,7.02-7.06h48.39c22.35,0,34.3,15.99,34.3,36.06s-11.94,36.37-34.3,36.37Z"/>
      <path class="cls-1" d="M1311.28,302.37h-118.27c-3.87,0-7.02-3.16-7.02-7.06v-28.82c0-3.89,3.15-7.06,7.02-7.06h62.91c5.43,0,9.83-4.42,9.83-9.88v-42.18c0-5.46-4.4-9.87-9.83-9.87h-62.91c-3.87,0-7.02-3.17-7.02-7.06v-28.8c0-3.9,3.15-7.06,7.02-7.06h112.86c5.43,0,9.83-4.42,9.83-9.88v-42.18c0-5.46-4.4-9.88-9.83-9.88h-171.67c-5.43,0-9.83,4.42-9.83,9.88v251.91c0,5.46,4.4,9.88,9.83,9.88h177.08c5.43,0,9.83-4.42,9.83-9.88v-42.18c0-5.46-4.4-9.88-9.83-9.88Z"/>
      <path class="cls-1" d="M1522.88,274.77c34.61-19.89,39.25-56.78,39.25-84.13,0-39.26-9.32-98-103.41-98h-101.36c-5.43,0-9.83,4.42-9.83,9.88v251.91c0,5.46,4.4,9.88,9.83,9.88h41.96c5.44,0,9.83-4.42,9.83-9.88v-58.43c0-3.9,3.15-7.06,7.02-7.06h33.26c4.17,0,8,2.33,9.94,6.04l33.54,64.04c1.7,3.25,5.06,5.28,8.69,5.28h48.9c2.46,0,4.74-1.3,6.01-3.41,1.26-2.12,1.34-4.74.19-6.93l-36.54-69.78c-1.77-3.36-.57-7.52,2.72-9.41ZM1464.56,227.01h-48.39c-3.87,0-7.02-3.16-7.02-7.06v-58.32c0-3.9,3.15-7.06,7.02-7.06h48.39c22.35,0,34.3,15.99,34.3,36.06s-11.94,36.37-34.3,36.37Z"/>
      <path class="cls-1" d="M1829.13,355.01l-85.82-255.65c-1.34-4.01-5.09-6.72-9.31-6.72h-49.82c-4.21,0-7.96,2.71-9.31,6.72l-85.82,255.64c-.72,2.16-.37,4.53.95,6.38,1.32,1.85,3.44,2.93,5.7,2.93h47.09c4.21,0,7.96-2.71,9.31-6.72l7.26-21.64c.97-2.86,3.64-4.8,6.65-4.8h86.12c3.02,0,5.69,1.93,6.65,4.8l7.29,21.64c1.35,4.02,5.1,6.72,9.31,6.72h47.1c2.26,0,4.38-1.1,5.7-2.93,1.32-1.85,1.67-4.22.95-6.37ZM1736.88,276.2c-.78,1.1-2.06,1.76-3.42,1.76h-48.76c-1.36,0-2.62-.66-3.42-1.76-.79-1.1-1-2.53-.57-3.83l24.39-72.64c.57-1.72,2.19-2.88,3.99-2.88s3.43,1.16,4,2.88l24.39,72.64c.43,1.3.22,2.71-.58,3.83Z"/>
    </g>
    <path class="cls-1" d="M1850.56,112.91c0,11.14-8.99,20.18-20.07,20.18s-20.07-9.04-20.07-20.18,8.99-20.18,20.07-20.18,20.07,9.04,20.07,20.18ZM1845.56,112.91c0-8.37-6.75-15.16-15.07-15.16s-15.07,6.78-15.07,15.16,6.75,15.15,15.07,15.15,15.07-6.78,15.07-15.15ZM1825.37,112.85c0,3.19,2.57,5.78,5.75,5.78,1.79,0,3.38-.82,4.44-2.11.09-.12.24-.19.39-.2s.3.05.41.16l2.7,2.71c.2.2.21.53.02.74-1.95,2.21-4.79,3.6-7.95,3.6-5.87,0-10.63-4.79-10.63-10.69s4.76-10.69,10.63-10.69c3.17,0,6.01,1.39,7.95,3.6.19.21.18.54-.02.74l-2.7,2.71c-.11.11-.26.17-.41.16-.15,0-.29-.08-.39-.2-1.06-1.29-2.65-2.11-4.44-2.11-3.18,0-5.75,2.59-5.75,5.78Z"/>
  </g>
</svg>